<?xml version="1.0" encoding="utf-8"?>
<!-- Generator: Adobe Illustrator 24.3.0, SVG Export Plug-In . SVG Version: 6.00 Build 0)  -->
<svg version="1.1" id="Layer_1" xmlns="http://www.w3.org/2000/svg" xmlns:xlink="http://www.w3.org/1999/xlink" x="0px" y="0px"
	 viewBox="0 0 1392.97 294.55" style="enable-background:new 0 0 1392.97 294.55;" xml:space="preserve">
<style type="text/css">
	.st0{fill:#111111;}
	.st1{fill:#9840FF;}
	.st2{fill:#FFB000;}
	.st3{fill:#F433DA;}
</style>
<g>
	<g>
		<path class="st0" d="M972.24,56.21c-22.89,0-41.37,11.44-51.78,26.27V1.09h-35.37V215.4h35.37v-82.09
			c0-26.55,18.29-45.87,43.53-45.87c25.61,0,37.9,16.79,37.9,43.34v84.62h35.37V127.6C1037.25,81.44,1014.27,56.21,972.24,56.21z"/>
		<path class="st0" d="M455.91,58.18c-27.76-6.22-52.46-0.62-70.69,13.46V59.37h-35.36v234.05h35.36v-90.82
			c9.1,6.38,20.01,11.21,32.62,14.03c49.93,11.18,89.63-15.84,99.92-61.76C527.91,109.57,504.62,69.09,455.91,58.18z M436.57,187.62
			c-28.75,0-47.36-22.73-47.36-50.83c0-27.15,18.62-49.57,47.98-49.57c28.75,0,47.39,22.73,47.39,50.83
			C484.58,165.2,465.94,187.62,436.57,187.62z"/>
		<path class="st0" d="M631.91,58.18C582,47.01,541.97,73.96,531.69,119.88c-10.14,45.29,13.47,85.86,62.15,96.76
			c49.93,11.18,89.63-15.84,99.92-61.76C703.9,109.57,680.61,69.09,631.91,58.18z M612.57,187.62c-28.75,0-47.36-22.73-47.36-50.83
			c0-27.15,18.62-49.57,47.98-49.57c28.75,0,47.39,22.73,47.39,50.83C660.57,165.2,641.93,187.62,612.57,187.62z"/>
		<path class="st0" d="M811.52,58.18c-27.76-6.22-52.46-0.62-70.69,13.46V59.37h-35.36v234.05h35.36v-90.82
			c9.1,6.38,20.01,11.21,32.63,14.03c49.93,11.18,89.63-15.84,99.92-61.76C883.52,109.57,860.22,69.09,811.52,58.18z M792.18,187.62
			c-28.75,0-47.36-22.73-47.36-50.83c0-27.15,18.62-49.57,47.98-49.57c28.75,0,47.39,22.73,47.39,50.83
			C840.19,165.2,821.54,187.62,792.18,187.62z"/>
		<path class="st0" d="M1149.17,58.18c-49.91-11.18-89.93,15.78-100.22,61.69c-10.14,45.29,13.47,85.86,62.15,96.76
			c49.93,11.18,89.63-15.84,99.92-61.76C1221.16,109.57,1197.87,69.09,1149.17,58.18z M1129.82,187.62
			c-28.75,0-47.36-22.73-47.36-50.83c0-27.15,18.62-49.57,47.98-49.57c28.75,0,47.39,22.73,47.39,50.83
			C1177.83,165.2,1159.19,187.62,1129.82,187.62z"/>
		<path class="st0" d="M1328.78,58.18c-27.76-6.22-52.46-0.62-70.69,13.46V59.37h-35.36v234.05h35.36V202.6
			c9.1,6.38,20.01,11.21,32.63,14.03c49.93,11.18,89.63-15.84,99.92-61.76C1400.78,109.57,1377.48,69.08,1328.78,58.18z
			 M1309.44,187.61c-28.75,0-47.36-22.73-47.36-50.83c0-27.15,18.62-49.57,47.98-49.57c28.75,0,47.39,22.73,47.39,50.83
			C1357.45,165.19,1338.8,187.61,1309.44,187.61z"/>
	</g>
	<g>
		<path class="st1" d="M291.77,182.22v49.67c0,40.64-22.62,61.13-60.58,61.13h-49.27c-37.96,0-60.58-20.48-60.58-61.13v-49.67
			c0-40.67,22.62-61.13,60.58-61.13h49.27C269.15,121.1,291.77,141.55,291.77,182.22z"/>
		<path class="st2" d="M293.07,61.23c0,33.16-11.55,60.04-70.04,60.04h-31.64c-58.52,0-70.04-26.88-70.04-60.04
			c0-33.13,11.52-60.04,70.04-60.04h31.64C281.52,1.19,293.07,28.1,293.07,61.23z"/>
		<path class="st1" d="M121.35,60.63c0,2.73-0.09,5.37-0.36,7.92c-2.66,34.85-23.61,49.54-50.51,52.27
			c-3.2,0.35-6.48,0.44-9.76,0.44s-6.48-0.09-9.59-0.44c-14.47-1.41-27.25-6.25-36.4-15.93C5.59,95.3,0,80.96,0,60.63
			C0,15.57,27.16,0,60.72,0c31.6,0,57.52,13.81,60.36,53.24C121.26,55.61,121.35,58.08,121.35,60.63z"/>
		<path class="st3" d="M61.01,121.29c33.33,0,60.34,11.65,60.34,70.67v31.92c0,59.05-27.01,70.67-60.34,70.67
			c-33.3,0-60.34-11.62-60.34-70.67v-31.92C0.67,132.94,27.71,121.29,61.01,121.29z"/>
	</g>
</g>
</svg>
